<svg xmlns="http://www.w3.org/2000/svg" viewBox="-105 -105 210 210" width="420" height="420"><defs>
<linearGradient id="ice" gradientUnits="userSpaceOnUse" x1="-90" y1="-100" x2="90" y2="100"><stop offset="0" stop-color="#21C8F2"/><stop offset="1" stop-color="#2B3FD6"/></linearGradient>
<linearGradient id="txt" x1="0" y1="0" x2="1" y2="0"><stop offset="0" stop-color="#21C8F2"/><stop offset="1" stop-color="#2B3FD6"/></linearGradient>
<radialGradient id="core"><stop offset="0" stop-color="#FFFFFF"/><stop offset=".55" stop-color="#BDF6FF"/><stop offset="1" stop-color="#3FD0FF"/></radialGradient>
<radialGradient id="glow"><stop offset="0" stop-color="#7FE9FF" stop-opacity=".75"/><stop offset="1" stop-color="#7FE9FF" stop-opacity="0"/></radialGradient>
</defs><filter id="soft" filterUnits="userSpaceOnUse" x="-120" y="-120" width="240" height="240"><feGaussianBlur stdDeviation="4"/></filter><circle r="46" fill="url(#glow)"/><linearGradient id="b00" gradientUnits="userSpaceOnUse" x1="0.00" y1="-98.00" x2="0.00" y2="-35.00"><stop offset="0" stop-color="#2B3FD6" stop-opacity="0"/><stop offset=".45" stop-color="#2B3FD6" stop-opacity=".75"/><stop offset="1" stop-color="#1FC6F0"/></linearGradient><path d="M0.00 -35.00L-28.00 -98.00A98 98 0 0 1 28.00 -98.00Z" fill="url(#b00)" opacity=".55" filter="url(#soft)"/><path d="M0.00 -35.00L-12.00 -97.00A98 98 0 0 1 12.00 -97.00Z" fill="url(#b00)"/><path d="M0.00 -38.00L0.00 -80.00" stroke="#fff" stroke-opacity=".85" stroke-width="1.3" stroke-linecap="round"/><path d="M0.00 -86.00L-6.55 -90.59" stroke="url(#ice)" stroke-width="1.7" stroke-linecap="round" opacity=".8"/><path d="M0.00 -86.00L6.55 -90.59" stroke="url(#ice)" stroke-width="1.7" stroke-linecap="round" opacity=".8"/><linearGradient id="b10" gradientUnits="userSpaceOnUse" x1="84.87" y1="-49.00" x2="30.31" y2="-17.50"><stop offset="0" stop-color="#2B3FD6" stop-opacity="0"/><stop offset=".45" stop-color="#2B3FD6" stop-opacity=".75"/><stop offset="1" stop-color="#1FC6F0"/></linearGradient><path d="M30.31 -17.50L70.87 -73.25A98 98 0 0 1 98.87 -24.75Z" fill="url(#b10)" opacity=".55" filter="url(#soft)"/><path d="M30.31 -17.50L78.00 -58.89A98 98 0 0 1 90.00 -38.11Z" fill="url(#b10)"/><path d="M32.91 -19.00L69.28 -40.00" stroke="#fff" stroke-opacity=".85" stroke-width="1.3" stroke-linecap="round"/><path d="M74.48 -43.00L75.18 -50.97" stroke="url(#ice)" stroke-width="1.7" stroke-linecap="round" opacity=".8"/><path d="M74.48 -43.00L81.73 -39.62" stroke="url(#ice)" stroke-width="1.7" stroke-linecap="round" opacity=".8"/><linearGradient id="b20" gradientUnits="userSpaceOnUse" x1="84.87" y1="49.00" x2="30.31" y2="17.50"><stop offset="0" stop-color="#2B3FD6" stop-opacity="0"/><stop offset=".45" stop-color="#2B3FD6" stop-opacity=".75"/><stop offset="1" stop-color="#1FC6F0"/></linearGradient><path d="M30.31 17.50L98.87 24.75A98 98 0 0 1 70.87 73.25Z" fill="url(#b20)" opacity=".55" filter="url(#soft)"/><path d="M30.31 17.50L90.00 38.11A98 98 0 0 1 78.00 58.89Z" fill="url(#b20)"/><path d="M32.91 19.00L69.28 40.00" stroke="#fff" stroke-opacity=".85" stroke-width="1.3" stroke-linecap="round"/><path d="M74.48 43.00L81.73 39.62" stroke="url(#ice)" stroke-width="1.7" stroke-linecap="round" opacity=".8"/><path d="M74.48 43.00L75.18 50.97" stroke="url(#ice)" stroke-width="1.7" stroke-linecap="round" opacity=".8"/><linearGradient id="b30" gradientUnits="userSpaceOnUse" x1="0.00" y1="98.00" x2="0.00" y2="35.00"><stop offset="0" stop-color="#2B3FD6" stop-opacity="0"/><stop offset=".45" stop-color="#2B3FD6" stop-opacity=".75"/><stop offset="1" stop-color="#1FC6F0"/></linearGradient><path d="M0.00 35.00L28.00 98.00A98 98 0 0 1 -28.00 98.00Z" fill="url(#b30)" opacity=".55" filter="url(#soft)"/><path d="M0.00 35.00L12.00 97.00A98 98 0 0 1 -12.00 97.00Z" fill="url(#b30)"/><path d="M0.00 38.00L0.00 80.00" stroke="#fff" stroke-opacity=".85" stroke-width="1.3" stroke-linecap="round"/><path d="M0.00 86.00L6.55 90.59" stroke="url(#ice)" stroke-width="1.7" stroke-linecap="round" opacity=".8"/><path d="M0.00 86.00L-6.55 90.59" stroke="url(#ice)" stroke-width="1.7" stroke-linecap="round" opacity=".8"/><linearGradient id="b40" gradientUnits="userSpaceOnUse" x1="-84.87" y1="49.00" x2="-30.31" y2="17.50"><stop offset="0" stop-color="#2B3FD6" stop-opacity="0"/><stop offset=".45" stop-color="#2B3FD6" stop-opacity=".75"/><stop offset="1" stop-color="#1FC6F0"/></linearGradient><path d="M-30.31 17.50L-70.87 73.25A98 98 0 0 1 -98.87 24.75Z" fill="url(#b40)" opacity=".55" filter="url(#soft)"/><path d="M-30.31 17.50L-78.00 58.89A98 98 0 0 1 -90.00 38.11Z" fill="url(#b40)"/><path d="M-32.91 19.00L-69.28 40.00" stroke="#fff" stroke-opacity=".85" stroke-width="1.3" stroke-linecap="round"/><path d="M-74.48 43.00L-75.18 50.97" stroke="url(#ice)" stroke-width="1.7" stroke-linecap="round" opacity=".8"/><path d="M-74.48 43.00L-81.73 39.62" stroke="url(#ice)" stroke-width="1.7" stroke-linecap="round" opacity=".8"/><linearGradient id="b50" gradientUnits="userSpaceOnUse" x1="-84.87" y1="-49.00" x2="-30.31" y2="-17.50"><stop offset="0" stop-color="#2B3FD6" stop-opacity="0"/><stop offset=".45" stop-color="#2B3FD6" stop-opacity=".75"/><stop offset="1" stop-color="#1FC6F0"/></linearGradient><path d="M-30.31 -17.50L-98.87 -24.75A98 98 0 0 1 -70.87 -73.25Z" fill="url(#b50)" opacity=".55" filter="url(#soft)"/><path d="M-30.31 -17.50L-90.00 -38.11A98 98 0 0 1 -78.00 -58.89Z" fill="url(#b50)"/><path d="M-32.91 -19.00L-69.28 -40.00" stroke="#fff" stroke-opacity=".85" stroke-width="1.3" stroke-linecap="round"/><path d="M-74.48 -43.00L-81.73 -39.62" stroke="url(#ice)" stroke-width="1.7" stroke-linecap="round" opacity=".8"/><path d="M-74.48 -43.00L-75.18 -50.97" stroke="url(#ice)" stroke-width="1.7" stroke-linecap="round" opacity=".8"/><circle r="34" fill="none" stroke="url(#ice)" stroke-width="2"/><circle r="25" fill="none" stroke="url(#ice)" stroke-width="1.2" opacity=".6"/><circle r="15" fill="url(#core)"/></svg>
