<svg xmlns="http://www.w3.org/2000/svg" viewBox="0 0 300 330" width="600" height="660"><defs>
<linearGradient id="ice" gradientUnits="userSpaceOnUse" x1="-90" y1="-100" x2="90" y2="100"><stop offset="0" stop-color="#21C8F2"/><stop offset="1" stop-color="#2B3FD6"/></linearGradient>
<linearGradient id="txt" x1="0" y1="0" x2="1" y2="0"><stop offset="0" stop-color="#21C8F2"/><stop offset="1" stop-color="#2B3FD6"/></linearGradient>
<radialGradient id="core"><stop offset="0" stop-color="#FFFFFF"/><stop offset=".55" stop-color="#BDF6FF"/><stop offset="1" stop-color="#3FD0FF"/></radialGradient>
<radialGradient id="glow"><stop offset="0" stop-color="#7FE9FF" stop-opacity=".55"/><stop offset="1" stop-color="#7FE9FF" stop-opacity="0"/></radialGradient>
</defs><g transform="translate(150 118)"><circle r="34" fill="url(#glow)"/><path d="M-1.10 -26.00L-5.00 -92.00A5 5 0 0 1 5.00 -92.00L1.10 -26.00ZM21.97 -13.95L77.17 -50.33A5 5 0 0 1 82.17 -41.67L23.07 -12.05ZM23.07 12.05L82.17 41.67A5 5 0 0 1 77.17 50.33L21.97 13.95ZM1.10 26.00L5.00 92.00A5 5 0 0 1 -5.00 92.00L-1.10 26.00ZM-21.97 13.95L-77.17 50.33A5 5 0 0 1 -82.17 41.67L-23.07 12.05ZM-23.07 -12.05L-82.17 -41.67A5 5 0 0 1 -77.17 -50.33L-21.97 -13.95Z" fill="url(#ice)"/><path d="M0.00 -52.00L-19.05 -63.00M0.00 -52.00L19.05 -63.00M0.00 -74.00L-14.72 -82.50M0.00 -74.00L14.72 -82.50M45.03 -26.00L45.03 -48.00M45.03 -26.00L64.09 -15.00M64.09 -37.00L64.09 -54.00M64.09 -37.00L78.81 -28.50M45.03 26.00L64.09 15.00M45.03 26.00L45.03 48.00M64.09 37.00L78.81 28.50M64.09 37.00L64.09 54.00M0.00 52.00L19.05 63.00M0.00 52.00L-19.05 63.00M0.00 74.00L14.72 82.50M0.00 74.00L-14.72 82.50M-45.03 26.00L-45.03 48.00M-45.03 26.00L-64.09 15.00M-64.09 37.00L-64.09 54.00M-64.09 37.00L-78.81 28.50M-45.03 -26.00L-64.09 -15.00M-45.03 -26.00L-45.03 -48.00M-64.09 -37.00L-78.81 -28.50M-64.09 -37.00L-64.09 -54.00" fill="none" stroke="url(#ice)" stroke-width="5.5" stroke-linecap="round"/><path d="M9.50 -16.45L19.00 0.00L9.50 16.45L-9.50 16.45L-19.00 0.00L-9.50 -16.45Z" fill="none" stroke="url(#ice)" stroke-width="3"/><circle r="10.5" fill="url(#core)"/></g><path fill="url(#txt)" transform="translate(47.08 292)" d="M10.416107382550335 -40.0H3.3288590604026846V0.0H10.416107382550335ZM61.52348993288591 0.6442953020134228C70.54362416107382 0.6442953020134228 77.41610738255034 -4.939597315436242 78.75838926174497 -13.664429530201343H71.56375838926175C70.43624161073825 -8.590604026845638 66.6778523489933 -5.718120805369128 61.57718120805369 -5.718120805369128C54.22147651006711 -5.718120805369128 49.81879194630873 -11.38255033557047 49.81879194630873 -19.973154362416107C49.81879194630873 -28.61744966442953 54.24832214765101 -34.281879194630875 61.57718120805369 -34.281879194630875C66.70469798657719 -34.281879194630875 70.46308724832215 -31.382550335570468 71.53691275167785 -26.28187919463087H78.75838926174497C77.41610738255034 -35.033557046979865 70.54362416107382 -40.644295302013425 61.52348993288591 -40.644295302013425C50.48993288590604 -40.644295302013425 42.67785234899329 -32.53691275167785 42.67785234899329 -19.973154362416107C42.67785234899329 -7.48993288590604 50.48993288590604 0.6442953020134228 61.52348993288591 0.6442953020134228ZM110.91275167785234 0.0H138.6979865771812V-6.147651006711409H118.0V-17.288590604026844H137.14093959731542V-23.328859060402685H118.0V-33.85234899328859H138.6979865771812V-40.0H110.91275167785234ZM184.3288590604027 0.0C196.5704697986577 0.0 203.8993288590604 -7.677852348993288 203.8993288590604 -20.053691275167786C203.8993288590604 -32.348993288590606 196.51677852348993 -40.0 184.62416107382552 -40.0H170.8255033557047V0.0ZM177.91275167785236 -6.067114093959732V-33.93288590604027H184.16778523489933C192.59731543624162 -33.93288590604027 196.73154362416108 -28.859060402684563 196.73154362416108 -20.053691275167786C196.73154362416108 -11.167785234899329 192.6510067114094 -6.067114093959732 183.95302013422818 -6.067114093959732Z"/></svg>
